<?xml version="1.0" encoding="UTF-8"?>
<svg id="openK" xmlns="http://www.w3.org/2000/svg" viewBox="0 0 382.68 366.5">
  <defs>
    <style>
      .cls-1 {
        fill: #001f3f;
      }
    </style>
  </defs>
  <path class="cls-1" d="m144.97,289.13c-.8,3.42-.34,5.37,2.86,7.07,16.42,8.71,23.57,27.52,17.53,45.19-5.92,17.31-23.01,27.03-41.34,24.76-15.35-1.91-31.38-17.42-31.9-36.01-.42-15.11,9.34-30.15,23.69-35.57,4.58-1.73,9.5-2.57,13.99-3.74-7.7-4.56-14.85-10.66-21.17-17.81-5.28-5.97-8.46-12.81-10.37-20.54-8.61-34.92-17.43-69.8-26.19-104.68-6.58-26.23-13.18-52.46-19.78-78.69-.23-.93-.47-1.86-.75-2.78-1.59-5.13-3.85-6.87-9.22-6.89-10.08-.03-20.16.04-30.25,0-6.29-.03-10.26-3-11.71-8.59-1.8-6.91,3.31-14.38,10.47-14.5,13.82-.25,27.66-.35,41.47.06,9.34.27,17.75,7.97,20.04,17.55.67,2.79,1.67,3.79,4.71,3.75,14.5-.2,29-.12,43.5-.06,1.95,0,2.99-.61,4.04-2.33,11.74-19.22,27.65-33.99,47.96-43.81C188.95,3.58,206.35-.08,224.57,0c23.74.11,45.52,6.76,65.61,19.26,8.01,4.98,15.38,10.76,22.03,17.45.52.52,1,1.09,1.85,2.01-7.34,3.09-14.36,6.1-21.43,9-6.38,2.62-12.76,5.29-19.25,7.6-2.91,1.03-6.11,1.72-9.18,1.73-29.67.1-59.34.03-89.01.01-.94,0-1.88.09-3.12.15,0,1.96,0,3.76,0,5.55,0,50.51.04,101.01-.06,151.52,0,3.04.66,5.11,3.43,6.42,1.87.89,3.67,1.93,5.82,3.06v-4.15c1.29,0,2.41,0,3.53,0,20.64-.01,41.29-.06,61.93.03,1.94,0,3.93.71,5.81,1.36,11.86,4.11,23.7,8.28,35.54,12.45.69.24,1.32.64,2.24,1.1-13.92,8.1-28.52,13.36-44.09,15.79-16.72,2.62-33.42,2.77-50.04-.93-24.71-5.5-45.24-18.01-61.93-36.95-9.02-10.25-16.13-21.68-20.83-34.53-.72-1.97-1.71-2.69-3.76-2.52-1.99.17-4.01.04-6.5.04,1.09,4.45,2.08,8.67,3.15,12.87,4.44,17.54,8.74,35.12,13.41,52.61,2.35,8.81,6.82,16.46,14.77,21.58,4.04,2.6,8.45,4.16,13.24,4.16,51.37.01,102.74-.02,154.11-.07,11.04,0,22.08-.09,33.12-.19,6.57-.06,12.14,5.19,12.21,11.62.07,6.77-5.35,11.69-12.65,11.62-15.07-.15-30.14-.31-45.21-.34-46.95-.09-93.9-.12-140.85-.17-1.14,0-2.28,0-3.48,0Zm2.76-126.28h10.52V46.02c-3.24,3.22-5.87,5.96-8.64,8.55-1.45,1.35-1.91,2.82-1.91,4.78.06,30.43.03,60.87.03,91.3,0,4.01,0,8.03,0,12.21Zm-2.02,166.56c-.13-9.08-7.33-16.26-16.09-16.06-8.52.2-15.81,7.5-15.64,15.66.19,9.31,7.18,16.21,16.31,16.09,8.55-.11,15.54-7.23,15.42-15.69Zm-10.23-253.37c-.5.83-.76,1.18-.94,1.58-8,17.29-11.05,35.53-10.34,54.47.37,9.79,1.7,19.43,4.51,28.86.47,1.57,1.03,2.3,2.71,2.13,1.29-.13,2.6-.03,4.06-.03v-87.01Zm-56.39,4.09c2.33,9.05,4.57,17.92,6.97,26.74.18.65,1.45,1.39,2.24,1.42,3.44.15,6.9.06,10.35.06,2.54,0,5.08,0,7.18,0,2.24-9.76,4.34-18.92,6.48-28.22h-33.22Zm10.92,41.45c.47,2.18.87,4.22,1.37,6.24,2.7,11.06,5.41,22.11,8.21,33.14.21.81,1.11,1.95,1.8,2.03,2.25.26,4.54.1,6.26.1-1.43-13.95-2.82-27.61-4.24-41.51h-13.38ZM237.85,45.4v-24.8c-4.59-.33-8.84-.63-13.34-.95,0,8.41-.03,16.34.07,24.27,0,.5.99,1.4,1.55,1.42,3.83.13,7.66.07,11.72.07Zm-26.4-25.22c-4.66,1.05-8.83,1.95-12.96,2.97-.48.12-1.15.89-1.15,1.36-.07,6.85-.05,13.71-.05,20.72h14.17v-25.05Zm-64.04,154.64c0,6.86-.01,13.45.02,20.05,0,.55.1,1.25.44,1.63,3.21,3.67,6.49,7.29,9.75,10.93.22-.15.45-.31.67-.46v-32.15h-10.88ZM251.24,23.66v21.54h13.97c0-5.28.03-10.34-.04-15.4,0-.52-.52-1.33-.99-1.51-4.18-1.57-8.4-3.02-12.94-4.63Zm-67.49,21.61v-16.88c-1.83.95-3.29,1.66-4.7,2.45-9.72,5.49-8.04,3.4-7.79,13.79,0,.17.16.33.31.64h12.18Zm94.48-.46h11.3c-4.03-3.24-7.41-5.97-11.3-9.11v9.11Zm-53.34,185.93c-.61,2.09.03,2.84,1.86,2.6,3.41-.44,6.83-.85,10.24-1.3.47-.06.92-.24,1.37-.36-.23-.32-.45-.63-.68-.95h-12.8Zm-24.9-.49c0,.25,0,.49,0,.74,3.34.61,6.67,1.26,10.03,1.77.53.08,1.16-.54,1.75-.84-.53-.35-1.03-.96-1.58-1.01-3.39-.29-6.8-.45-10.2-.66Z"/>
  <path class="cls-1" d="m331.04,232.3c-3.85-1.28-7.37-2.44-10.89-3.63-18.98-6.38-37.93-12.82-56.95-19.07-2.94-.97-4.01-2.41-3.94-5.47.2-8.35.15-16.7.15-25.05-.01-33.11-.02-66.23-.14-99.34,0-2.5.68-3.65,3.06-4.58,22.33-8.66,44.6-17.46,66.89-26.21.52-.2,1.07-.34,1.81-.57v183.92Zm-3.61-86.48c-.07-7.14-5.98-13.29-12.78-13.31-7.36-.02-13.47,6.08-13.33,13.31.13,7.07,6.45,13.32,13.3,13.15,7.18-.17,12.88-6.02,12.81-13.15Z"/>
  <path class="cls-1" d="m291.07,366.5c-23.12.4-37.55-18.97-37.69-37.22-.16-20.64,16.83-37.56,38-37.72,20.04-.15,37.12,17.08,37.28,37.58.15,20.01-17.13,37.19-37.59,37.35Zm.14-53.12c-8.47-.22-15.85,6.9-16.05,15.51-.21,8.64,6.74,16.01,15.29,16.22,8.57.21,15.97-6.77,16.23-15.32.27-8.72-6.77-16.19-15.47-16.41Z"/>
  <path class="cls-1" d="m345.43,244.28c0-19.38,0-38.77,0-58.15,0-14.49-.27-28.99.09-43.47.14-5.5,1.7-10.95,2.61-16.43.2-1.23.38-2.46.59-3.87-.96-.19-1.85-.36-2.93-.57v-12.72c.82-.05,1.76-.28,2.64-.13,2.96.48,3.95-.93,4.44-3.68,1.42-7.92,3.1-15.8,4.67-23.69.07-.36,0-.74,0-1.38h-11.78v-22.03c8.88,0,17.71-.63,26.42.19,7.21.68,11.68,7.9,10.22,15.07-3.03,14.91-6.32,29.76-9.53,44.63-7.15,33.1-14.36,66.19-21.48,99.29-1.93,8.96-3.62,17.96-5.43,26.95-.18,0-.36,0-.54,0Z"/>
</svg>